<svg width="225" height="73" viewBox="0 0 225 73" fill="none" xmlns="http://www.w3.org/2000/svg">
<path d="M29.2243 39.6506C12.8897 44.1485 9.57544 30.5363 8.62852 26.6303C0.762668 40.1848 5.08539 51.9727 10.7411 59.2994L2 68.5319C14 73.353 29.2243 70.853 36.563 68.5319C60.5 58.853 61.1832 40.8342 60.2362 36.8098C55.5016 17.2083 39.7194 13.0181 32.4201 13.3732C39.6405 16.0957 42.718 33.7322 29.2243 39.6506Z" stroke="white" stroke-width="3" stroke-linecap="round" stroke-linejoin="round"/>
<path d="M35.9711 34.4424C37.5888 31.8778 42.4103 27.009 48.7547 28.0506C55.0991 29.0923 58.8158 33.456 59.8811 35.5077" stroke="white" stroke-width="3" stroke-linecap="round"/>
<path d="M51.9506 41.3077C51.9506 39.085 50.1488 37.2832 47.9261 37.2832C45.7035 37.2832 43.9017 39.085 43.9017 41.3077" stroke="white" stroke-width="3" stroke-linecap="round"/>
<path d="M7.25078 9.54883L15.8242 11.2244L21.5084 4.66671" stroke="white" stroke-width="3" stroke-linecap="round" stroke-linejoin="round"/>
<path d="M18.3499 18.5594L15.8214 11.2162" stroke="white" stroke-width="3" stroke-linecap="round" stroke-linejoin="round"/>
<path d="M11.341 3.64852L7.84287 7.53364C7.05001 8.4134 6.71683 10.0495 7.10153 11.1668L8.6766 15.7411C9.06131 16.8584 10.3312 17.9426 11.4976 18.1477L16.6489 19.0636C17.7475 19.2559 19.2615 18.7346 20.0088 17.9067L23.5042 14.0135C24.2971 13.1337 24.6302 11.4976 24.2455 10.3803L22.6705 5.806C22.2858 4.68873 21.0159 3.60456 19.8495 3.39943L14.6982 2.48352C13.5915 2.29405 12.0856 2.81257 11.341 3.64852Z" stroke="white" stroke-width="3" stroke-linecap="round" stroke-linejoin="round"/>
<mask id="path-7-inside-1_608_2" fill="white">
<path d="M66.3117 38.621C66.9783 39.0059 66.9783 39.9681 66.3117 40.353L60.1179 43.929V35.045L66.3117 38.621Z"/>
</mask>
<path d="M66.3117 38.621C66.9783 39.0059 66.9783 39.9681 66.3117 40.353L60.1179 43.929V35.045L66.3117 38.621Z" fill="white"/>
<path d="M60.1179 43.929H59.1179V45.6611L60.6179 44.7951L60.1179 43.929ZM60.1179 35.045L60.6179 34.179L59.1179 33.3129V35.045H60.1179ZM66.3117 40.353L65.8117 39.487L66.3117 40.353ZM66.3117 40.353L65.8117 39.487L59.6179 43.063L60.1179 43.929L60.6179 44.7951L66.8117 41.2191L66.3117 40.353ZM60.1179 43.929H61.1179V35.045H60.1179H59.1179V43.929H60.1179ZM60.1179 35.045L59.6179 35.911L65.8117 39.487L66.3117 38.621L66.8117 37.755L60.6179 34.179L60.1179 35.045ZM66.3117 40.353L66.8117 41.2191C68.145 40.4493 68.145 38.5248 66.8117 37.755L66.3117 38.621L65.8117 39.487L65.8117 39.487L66.3117 40.353Z" fill="white" mask="url(#path-7-inside-1_608_2)"/>
<path d="M10.5 59C12.3333 59.8333 16.9 61 20.5 59" stroke="white" stroke-width="3" stroke-linecap="round" stroke-linejoin="round"/>
<path d="M95.395 45.165L109.155 60H103.78L92.041 47.358V60H88.042V30.373H92.041V43.187L101.845 30.373H106.79L95.395 45.165ZM125.382 50.755V39.919H129.295V60H125.382V56.99C124.135 59.398 121.34 60.43 119.147 60.43C114.116 60.43 111.364 57.205 111.407 51.529V39.919H115.32V51.271C115.32 54.668 116.954 56.603 119.706 56.603C122.544 56.603 125.382 55.055 125.382 50.755ZM139.724 52.69V60H135.811V39.919H139.724V44.434C140.756 40.865 142.691 39.489 145.314 39.489C146.733 39.489 148.238 39.876 148.797 40.263L148.195 43.918C147.12 43.402 146.045 43.23 145.228 43.23C141.358 43.23 139.724 47.358 139.724 52.69ZM166.493 50.755V39.919H170.406V60H166.493V56.99C165.246 59.398 162.451 60.43 160.258 60.43C155.227 60.43 152.475 57.205 152.518 51.529V39.919H156.431V51.271C156.431 54.668 158.065 56.603 160.817 56.603C163.655 56.603 166.493 55.055 166.493 50.755ZM180.791 39.919V60H176.921V39.919H180.791ZM176.147 32.523C176.147 31.018 177.351 29.986 178.856 29.986C180.361 29.986 181.565 31.018 181.565 32.523C181.565 34.028 180.361 35.06 178.856 35.06C177.351 35.06 176.147 34.028 176.147 32.523ZM189.915 48.39H202.385C201.912 44.993 199.547 43.015 196.279 43.015C192.968 43.015 190.388 44.993 189.915 48.39ZM206.255 49.895C206.255 50.368 206.255 50.97 206.212 51.443H189.915C190.388 54.84 192.968 56.904 196.408 56.904C198.816 56.904 201.009 55.829 202.17 53.808C203.202 54.281 204.449 54.625 205.524 55.098C203.804 58.667 200.192 60.43 196.279 60.43C190.56 60.43 186.002 56.259 186.002 49.895C186.002 43.531 190.56 39.489 196.279 39.489C201.998 39.489 206.255 43.531 206.255 49.895ZM215.142 52.69V60H211.229V39.919H215.142V44.434C216.174 40.865 218.109 39.489 220.732 39.489C222.151 39.489 223.656 39.876 224.215 40.263L223.613 43.918C222.538 43.402 221.463 43.23 220.646 43.23C216.776 43.23 215.142 47.358 215.142 52.69Z" fill="white"/>
</svg>
